<?xml version="1.0" encoding="UTF-8" standalone="no"?>
<svg
   xmlns:dc="http://purl.org/dc/elements/1.1/"
   xmlns:cc="http://creativecommons.org/ns#"
   xmlns:rdf="http://www.w3.org/1999/02/22-rdf-syntax-ns#"
   xmlns:svg="http://www.w3.org/2000/svg"
   xmlns="http://www.w3.org/2000/svg"
   xmlns:sodipodi="http://sodipodi.sourceforge.net/DTD/sodipodi-0.dtd"
   xmlns:inkscape="http://www.inkscape.org/namespaces/inkscape"
   width="350"
   height="160"
   id="svg2"
   version="1.1"
   inkscape:version="0.48.5 r10040"
   sodipodi:docname="LMU-Logo.svg">
  <metadata
     id="metadata10">
    <rdf:RDF>
      <cc:Work
         rdf:about="">
        <dc:format>image/svg+xml</dc:format>
        <dc:type
           rdf:resource="http://purl.org/dc/dcmitype/StillImage" />
      </cc:Work>
    </rdf:RDF>
  </metadata>
  <defs
     id="defs8" />
  <sodipodi:namedview
     pagecolor="#ffffff"
     bordercolor="#666666"
     borderopacity="1"
     objecttolerance="10"
     gridtolerance="10"
     guidetolerance="10"
     inkscape:pageopacity="0"
     inkscape:pageshadow="2"
     inkscape:window-width="640"
     inkscape:window-height="511"
     id="namedview6"
     showgrid="false"
     inkscape:zoom="1.1628571"
     inkscape:cx="175"
     inkscape:cy="78.280098"
     inkscape:window-x="0"
     inkscape:window-y="27"
     inkscape:window-maximized="0"
     inkscape:current-layer="svg2" />
  <path
     d="M289.28195 159.31415C264.73858 157.35077 249.13888 145.4265 244.61324 125.16974C243.08962 118.35001 243.19213 122.88937 243.108 58.508452L243.03155 0L259.39154 0L275.75155 0L275.8342 57.085772C275.89908 101.88872 275.98211 114.6052 276.22011 116.18701C277.98205 127.89766 283.12169 134.29881 292.02359 135.86938C294.57742 136.31997 300.53376 136.06232 302.79758 135.40337C310.97876 133.02194 315.39839 126.79773 316.7749 115.71902C316.94342 114.36281 317.02456 95.230527 317.02456 56.854862L317.02456 0L333.51229 0L350 0L349.91987 58.034222C349.83246 121.37068 349.91849 117.30508 348.52924 123.76386C344.74304 141.36643 332.14108 153.6595 313.65431 157.78398C306.39701 159.4031 297.43078 159.96604 289.28195 159.31415zM82.042257 0.474231L114.5049 0.474231L114.72239 1.244859C116.25187 6.664441 153.99636 132.01583 154.14721 132.17658C154.2614 132.29828 154.41853 132.33417 154.49639 132.25633L194.58796 0.592781L211.10983 0.53191L227.6317 0.471008L227.6317 157.44527L207.71392 157.44527C207.71392 157.44527 207.65185 17.527792 207.42458 17.603532L163.19977 157.32671L144.35605 157.32671C144.35605 157.32671 101.18677 17.644531 101.04047 17.595761L100.77445 157.44527L82.042257 157.44527L82.042257 0.474231zM0 0L13.752739 0L13.752739 145.35232L65.918348 145.35232L65.918348 156.97104L0 156.97104L0 0z"
     id="path4"
     fill="#00AF00" />
</svg>
